<mxfile host="app.diagrams.net" modified="2021-05-16T11:17:52.207Z" agent="5.0 (Windows NT 10.0; Win64; x64) AppleWebKit/537.36 (KHTML, like Gecko) Chrome/90.0.4430.214 Safari/537.36" etag="JuxeHlINzmYJD37INVt6" version="14.6.13" type="github">
  <diagram id="O0O-AF1R1AtUwGN3uYjA" name="Page-1">
    <mxGraphModel dx="2931" dy="2788" grid="1" gridSize="10" guides="1" tooltips="1" connect="1" arrows="1" fold="1" page="1" pageScale="1" pageWidth="827" pageHeight="1169" math="0" shadow="0">
      <root>
        <mxCell id="0" />
        <mxCell id="1" parent="0" />
        <mxCell id="fAMsA92jdIGtZwJdTUSz-4" value="" style="group" vertex="1" connectable="0" parent="1">
          <mxGeometry x="40" width="870" height="1140" as="geometry" />
        </mxCell>
        <mxCell id="fAMsA92jdIGtZwJdTUSz-2" value="" style="rounded=0;whiteSpace=wrap;html=1;" vertex="1" parent="fAMsA92jdIGtZwJdTUSz-4">
          <mxGeometry x="-10" y="-90" width="890" height="1220" as="geometry" />
        </mxCell>
        <mxCell id="fAMsA92jdIGtZwJdTUSz-1" value="" style="rounded=0;whiteSpace=wrap;labelPosition=left;verticalLabelPosition=middle;align=right;verticalAlign=middle;html=1;fontStyle=1;fontSize=20;labelBackgroundColor=none;labelBorderColor=none;spacingTop=0;noLabel=0;overflow=visible;" vertex="1" parent="fAMsA92jdIGtZwJdTUSz-4">
          <mxGeometry width="440" height="1120" as="geometry" />
        </mxCell>
        <mxCell id="fAMsA92jdIGtZwJdTUSz-3" value="&lt;b&gt;DAOs&lt;/b&gt;" style="text;html=1;strokeColor=none;fillColor=none;align=center;verticalAlign=middle;whiteSpace=wrap;rounded=0;labelBackgroundColor=none;fontSize=20;fontColor=#000000;" vertex="1" parent="fAMsA92jdIGtZwJdTUSz-4">
          <mxGeometry x="10" y="10" width="80" height="20" as="geometry" />
        </mxCell>
        <mxCell id="fAMsA92jdIGtZwJdTUSz-8" value="&lt;b&gt;Viewmodels&lt;/b&gt;" style="text;html=1;strokeColor=none;fillColor=none;align=center;verticalAlign=middle;whiteSpace=wrap;rounded=0;labelBackgroundColor=none;fontSize=20;fontColor=#000000;" vertex="1" parent="1">
          <mxGeometry x="40" y="-80" width="140" height="20" as="geometry" />
        </mxCell>
        <mxCell id="fAMsA92jdIGtZwJdTUSz-11" value="" style="group" vertex="1" connectable="0" parent="1">
          <mxGeometry x="940" y="-90" width="170" height="810" as="geometry" />
        </mxCell>
        <mxCell id="fAMsA92jdIGtZwJdTUSz-9" value="" style="rounded=0;whiteSpace=wrap;html=1;labelBackgroundColor=none;fontSize=20;fontColor=#000000;align=left;" vertex="1" parent="fAMsA92jdIGtZwJdTUSz-11">
          <mxGeometry width="170" height="810.0000000000001" as="geometry" />
        </mxCell>
        <mxCell id="fAMsA92jdIGtZwJdTUSz-10" value="&lt;b&gt;UI -&amp;nbsp; AppActivity&lt;br&gt;&lt;/b&gt;" style="text;html=1;strokeColor=none;fillColor=none;align=center;verticalAlign=middle;whiteSpace=wrap;rounded=0;labelBackgroundColor=none;fontSize=20;fontColor=#000000;" vertex="1" parent="fAMsA92jdIGtZwJdTUSz-11">
          <mxGeometry x="10" y="12.857142857142858" width="150" height="77.14285714285715" as="geometry" />
        </mxCell>
        <mxCell id="fAMsA92jdIGtZwJdTUSz-13" value="" style="group" vertex="1" connectable="0" parent="1">
          <mxGeometry x="940" y="730" width="170" height="400" as="geometry" />
        </mxCell>
        <mxCell id="fAMsA92jdIGtZwJdTUSz-14" value="" style="rounded=0;whiteSpace=wrap;html=1;labelBackgroundColor=none;fontSize=20;fontColor=#000000;align=left;" vertex="1" parent="fAMsA92jdIGtZwJdTUSz-13">
          <mxGeometry width="170" height="400.00000000000006" as="geometry" />
        </mxCell>
        <mxCell id="fAMsA92jdIGtZwJdTUSz-15" value="&lt;b&gt;UI -&amp;nbsp; LoginActivity&lt;br&gt;&lt;/b&gt;" style="text;html=1;strokeColor=none;fillColor=none;align=center;verticalAlign=middle;whiteSpace=wrap;rounded=0;labelBackgroundColor=none;fontSize=20;fontColor=#000000;" vertex="1" parent="fAMsA92jdIGtZwJdTUSz-13">
          <mxGeometry x="10" y="6.349206349206349" width="150" height="38.095238095238095" as="geometry" />
        </mxCell>
      </root>
    </mxGraphModel>
  </diagram>
</mxfile>
